<svg width="27" height="26" viewBox="0 0 26 26" fill="none" xmlns="http://www.w3.org/2000/svg">
<rect x="0" y="0" width="26" height="26" rx="13" fill="#FFE0CC"/>
<!-- ears -->
<polygon points="8,6 6,1 11,5" fill="#FF8C1A"/>
<polygon points="18,6 20,1 15,5" fill="#FF8C1A"/>
<!-- head -->
<circle cx="13" cy="13" r="7" fill="#FF8C1A"/>
<!-- eyes -->
<circle cx="10" cy="11" r="1.8" fill="white"/>
<circle cx="16" cy="11" r="1.8" fill="white"/>
<circle cx="10.5" cy="11" r="1" fill="#333"/>
<circle cx="16.5" cy="11" r="1" fill="#333"/>
<!-- nose -->
<ellipse cx="13" cy="14" rx="1.2" ry="0.8" fill="#FF6680"/>
<!-- mouth -->
<path d="M11 16Q13 18 15 16" stroke="#333" stroke-width="0.8" fill="none" stroke-linecap="round"/>
<!-- whiskers -->
<line x1="5" y1="12" x2="9" y2="13" stroke="#333" stroke-width="0.6"/>
<line x1="5" y1="14" x2="9" y2="14" stroke="#333" stroke-width="0.6"/>
<line x1="21" y1="12" x2="17" y2="13" stroke="#333" stroke-width="0.6"/>
<line x1="21" y1="14" x2="17" y2="14" stroke="#333" stroke-width="0.6"/>
</svg>
